<svg xmlns="http://www.w3.org/2000/svg" viewBox="0 0 2048 1142" width="2048" height="1142">
  <defs>
    <filter id="bgBlur" x="-25%" y="-25%" width="150%" height="150%">
      <feGaussianBlur stdDeviation="42"/>
    </filter>

    <filter id="goldTrace" x="-30%" y="-30%" width="160%" height="160%">
      <feGaussianBlur in="SourceGraphic" stdDeviation="1.8" result="b"/>
      <feMerge>
        <feMergeNode in="b"/>
        <feMergeNode in="SourceGraphic"/>
      </feMerge>
    </filter>

    <filter id="blueTrace" x="-30%" y="-30%" width="160%" height="160%">
      <feGaussianBlur in="SourceGraphic" stdDeviation="2" result="b"/>
      <feMerge>
        <feMergeNode in="b"/>
        <feMergeNode in="SourceGraphic"/>
      </feMerge>
    </filter>

    <filter id="goldWideGlow" x="-45%" y="-45%" width="190%" height="190%">
      <feGaussianBlur stdDeviation="10"/>
    </filter>

    <filter id="blueWideGlow" x="-45%" y="-45%" width="190%" height="190%">
      <feGaussianBlur stdDeviation="11"/>
    </filter>

    <filter id="goldPulseGlow" x="-50%" y="-50%" width="200%" height="200%">
      <feGaussianBlur stdDeviation="4.2"/>
    </filter>

    <filter id="bluePulseGlow" x="-50%" y="-50%" width="200%" height="200%">
      <feGaussianBlur stdDeviation="4.8"/>
    </filter>

    <filter id="goldDotGlow" x="-120%" y="-120%" width="340%" height="340%">
      <feGaussianBlur stdDeviation="3"/>
    </filter>

    <filter id="blueDotGlow" x="-120%" y="-120%" width="340%" height="340%">
      <feGaussianBlur stdDeviation="3.2"/>
    </filter>

    <radialGradient id="bgTop" cx="50%" cy="8%" r="58%">
      <stop offset="0%" stop-color="#153a69" stop-opacity="0.78"/>
      <stop offset="34%" stop-color="#0f2b4e" stop-opacity="0.40"/>
      <stop offset="100%" stop-color="#02060b" stop-opacity="0"/>
    </radialGradient>

    <radialGradient id="bgBottomBlue" cx="72%" cy="79%" r="40%">
      <stop offset="0%" stop-color="#144d87" stop-opacity="0.22"/>
      <stop offset="100%" stop-color="#144d87" stop-opacity="0"/>
    </radialGradient>

    <radialGradient id="bgBottomGold" cx="24%" cy="82%" r="32%">
      <stop offset="0%" stop-color="#9b6326" stop-opacity="0.15"/>
      <stop offset="100%" stop-color="#9b6326" stop-opacity="0"/>
    </radialGradient>

    <radialGradient id="vignette" cx="50%" cy="50%" r="73%">
      <stop offset="65%" stop-color="#000000" stop-opacity="0"/>
      <stop offset="100%" stop-color="#000000" stop-opacity="0.64"/>
    </radialGradient>

    <!-- soft underglow paths -->
    <path id="ug1" d="M -40 890 C 240 900 470 882 690 836 C 860 800 1035 738 1185 750 C 1310 760 1440 842 1595 836 C 1775 828 1945 780 2095 786" pathLength="100"/>
    <path id="ug2" d="M -30 1010 C 260 1015 520 1022 750 998 C 915 980 1040 930 1160 875 C 1280 820 1395 754 1540 742 C 1700 730 1895 742 2095 740" pathLength="100"/>
    <path id="ug3" d="M 245 1130 C 470 1122 690 1086 870 995 C 1020 920 1145 835 1285 798 C 1445 754 1650 748 1920 760 C 1990 764 2048 766 2100 768" pathLength="100"/>
    <path id="ub1" d="M -45 930 C 235 920 485 902 720 876 C 900 856 1035 820 1190 798 C 1335 776 1495 770 1675 792 C 1845 814 1970 820 2100 818" pathLength="100"/>
    <path id="ub2" d="M 530 1115 C 775 1085 975 1000 1160 912 C 1285 852 1410 792 1545 806 C 1680 820 1830 928 2095 1085" pathLength="100"/>
    <path id="ub3" d="M 980 762 C 1085 748 1165 756 1240 812 C 1305 860 1370 938 1455 940 C 1540 942 1630 856 1735 798 C 1835 742 1955 720 2100 730" pathLength="100"/>

    <!-- upper gold -->
    <path id="g01" d="M -28 308 C 95 340 205 356 316 318 C 420 282 510 216 626 168 C 694 140 760 128 848 126" pathLength="100"/>
    <path id="g02" d="M -20 282 C 96 326 218 318 342 258 C 448 205 560 163 700 146" pathLength="100"/>
    <path id="g03" d="M 12 340 C 145 344 252 296 370 226 C 476 164 574 139 716 131" pathLength="100"/>
    <path id="g04" d="M 66 364 C 196 364 304 312 420 246 C 505 198 585 184 694 184" pathLength="100"/>
    <path id="g05" d="M 126 350 C 245 344 344 300 430 252 C 500 212 570 200 660 202" pathLength="100"/>
    <path id="g06" d="M 996 220 C 1114 112 1208 92 1382 116 C 1528 136 1682 118 2050 74" pathLength="100"/>
    <path id="g07" d="M 1098 212 C 1210 185 1314 180 1440 178 C 1558 176 1712 144 2052 140" pathLength="100"/>
    <path id="g08" d="M 1048 252 C 1186 178 1294 162 1400 154 C 1540 144 1668 128 1812 92" pathLength="100"/>

    <!-- upper blue -->
    <path id="b01" d="M 246 286 C 368 238 470 176 592 122 C 650 96 694 78 760 56" pathLength="100"/>
    <path id="b02" d="M 1128 205 C 1210 122 1318 92 1514 78 C 1636 70 1796 42 2052 -2" pathLength="100"/>
    <path id="b03" d="M 1118 228 C 1228 150 1346 124 1510 114 C 1662 105 1800 72 2050 42" pathLength="100"/>
    <path id="b04" d="M 1110 252 C 1240 190 1358 176 1500 172 C 1650 168 1798 130 2052 92" pathLength="100"/>
    <path id="b05" d="M 1090 280 C 1232 246 1362 246 1522 246 C 1662 246 1812 206 2050 198" pathLength="100"/>
    <path id="b06" d="M 1080 302 C 1234 292 1388 292 1552 292 C 1714 292 1862 254 2050 250" pathLength="100"/>
    <path id="b07" d="M 1120 166 C 1210 96 1312 56 1430 26 C 1570 -8 1770 -22 2052 -38" pathLength="100"/>

    <!-- lower gold -->
    <path id="g11" d="M -56 816 C 132 826 302 838 474 856 C 620 872 776 870 944 822 C 1084 782 1238 718 1370 714 C 1498 710 1624 714 1756 716 C 1888 718 1984 712 2096 710" pathLength="100"/>
    <path id="g12" d="M -56 846 C 120 852 266 860 438 870 C 606 880 780 882 944 842 C 1080 808 1226 750 1372 742 C 1510 736 1660 744 1778 742 C 1904 740 1990 736 2094 735" pathLength="100"/>
    <path id="g13" d="M -40 884 C 136 886 320 892 506 904 C 664 914 818 910 972 866 C 1110 826 1268 770 1420 758 C 1560 746 1712 756 1846 756 C 1970 756 2052 754 2096 754" pathLength="100"/>
    <path id="g14" d="M -30 930 C 154 928 348 930 550 936 C 708 940 866 930 1030 880 C 1184 834 1332 780 1488 772 C 1642 766 1808 774 1942 776 C 2026 778 2062 780 2096 782" pathLength="100"/>
    <path id="g15" d="M 8 976 C 202 972 404 974 612 980 C 780 985 932 972 1086 914 C 1240 858 1376 800 1526 792 C 1690 782 1842 790 1984 790 C 2040 790 2070 792 2098 794" pathLength="100"/>
    <path id="g16" d="M 46 1018 C 248 1018 464 1014 670 1004 C 856 994 1014 944 1148 878 C 1270 818 1390 764 1502 744 C 1634 720 1810 714 2100 714" pathLength="100"/>
    <path id="g17" d="M 286 1124 C 474 1116 680 1082 850 1000 C 994 932 1140 850 1260 806 C 1400 752 1582 735 1860 736 C 1970 736 2050 736 2098 738" pathLength="100"/>
    <path id="g18" d="M 1316 1044 C 1458 962 1600 872 1730 800 C 1840 742 1956 730 2100 730" pathLength="100"/>
    <path id="g19" d="M 1550 720 C 1624 720 1692 720 1760 720 C 1814 720 1860 694 1910 650 C 1956 610 1998 592 2050 592 C 2070 592 2088 592 2102 594" pathLength="100"/>
    <path id="g20" d="M 1610 760 C 1680 760 1750 760 1820 760 C 1880 760 1930 738 1988 692 C 2030 658 2068 646 2102 648" pathLength="100"/>

    <!-- lower blue -->
    <path id="b11" d="M -70 838 C 90 830 246 820 416 812 C 576 804 740 804 916 790 C 1058 780 1186 770 1316 770 C 1448 770 1590 782 1696 790 C 1820 800 1942 806 2100 804" pathLength="100"/>
    <path id="b12" d="M -60 878 C 122 874 296 870 470 870 C 650 870 812 862 976 828 C 1120 798 1262 760 1396 754 C 1550 748 1730 756 1904 760 C 1990 762 2052 764 2100 766" pathLength="100"/>
    <path id="b13" d="M -60 916 C 132 916 318 918 500 920 C 680 922 850 910 1012 864 C 1166 820 1322 764 1466 758 C 1620 752 1786 766 1944 774 C 2020 778 2066 782 2100 788" pathLength="100"/>
    <path id="b14" d="M 60 946 C 244 946 420 946 596 944 C 772 942 920 930 1050 884 C 1182 838 1300 788 1420 785 C 1546 784 1700 800 1860 814 C 1970 824 2046 828 2100 832" pathLength="100"/>
    <path id="b15" d="M 186 982 C 370 986 540 986 706 980 C 858 974 996 944 1112 890 C 1236 830 1356 770 1472 764 C 1596 758 1750 786 1914 808 C 1990 818 2046 826 2100 834" pathLength="100"/>
    <path id="b16" d="M -20 1070 C 166 1070 342 1072 520 1072 C 700 1070 864 1050 1016 986 C 1138 932 1266 876 1392 870 C 1520 866 1666 906 1810 950 C 1926 986 2016 1020 2100 1050" pathLength="100"/>
    <path id="b17" d="M 120 1110 C 300 1112 480 1112 660 1108 C 836 1102 996 1070 1136 1006 C 1262 948 1380 900 1496 896 C 1638 890 1790 930 1944 990 C 2016 1018 2060 1040 2100 1058" pathLength="100"/>
    <path id="b18" d="M 1494 622 C 1580 622 1648 622 1700 620 C 1750 620 1798 596 1840 560 C 1880 526 1910 502 1960 500 C 2010 498 2052 498 2102 500" pathLength="100"/>
    <path id="b19" d="M 1560 694 C 1620 694 1678 694 1738 694 C 1800 694 1848 666 1900 620 C 1946 580 1986 560 2036 560 C 2062 560 2088 560 2102 562" pathLength="100"/>
    <path id="b20" d="M 980 760 C 1080 748 1168 752 1244 806 C 1312 854 1378 930 1464 932 C 1548 934 1634 850 1738 794 C 1840 738 1960 714 2100 726" pathLength="100"/>
  </defs>

  <style>
    svg { background:#02060b; }
    .trace, .pulse, .under {
      fill: none;
      stroke-linecap: round;
      stroke-linejoin: round;
      vector-effect: non-scaling-stroke;
    }

    .under.gold { stroke:#9c6327; stroke-opacity:.16; filter:url(#goldWideGlow); }
    .under.blue { stroke:#126bc1; stroke-opacity:.16; filter:url(#blueWideGlow); }

    .trace.gold { stroke:#e3b26b; filter:url(#goldTrace); }
    .trace.blue { stroke:#7adcff; filter:url(#blueTrace); }

    .pulse {
      stroke-dashoffset: 0;
      animation-name: dash, flicker;
      animation-timing-function: linear, steps(4, end);
      animation-iteration-count: infinite, infinite;
      animation-duration: var(--dur), 1.9s;
      animation-delay: var(--delay), var(--fdelay);
      stroke-dasharray: var(--dash);
    }

    .pulse.gold.glow { stroke:#ffbe40; stroke-opacity:.58; filter:url(#goldPulseGlow); }
    .pulse.gold.core { stroke:#fff3bd; stroke-opacity:.96; }
    .pulse.blue.glow { stroke:#12c8ff; stroke-opacity:.58; filter:url(#bluePulseGlow); }
    .pulse.blue.core { stroke:#ddffff; stroke-opacity:.94; }

    .goldDot, .blueDot {
      animation-iteration-count: infinite;
      animation-timing-function: ease-in-out;
      animation-duration: var(--dur);
      animation-delay: var(--delay);
    }

    .goldDot { fill:#f2b15c; filter:url(#goldDotGlow); animation-name: goldBlink; }
    .blueDot { fill:#2cc9ff; filter:url(#blueDotGlow); animation-name: blueBlink; }

    @keyframes dash {
      from { stroke-dashoffset: 0; }
      to   { stroke-dashoffset: -100; }
    }

    @keyframes flicker {
      0%,100% { opacity:.28; }
      8%  { opacity:.52; }
      13% { opacity:.34; }
      16% { opacity:.78; }
      20% { opacity:.40; }
      28% { opacity:.66; }
      35% { opacity:.24; }
      49% { opacity:.58; }
      58% { opacity:.32; }
      72% { opacity:.68; }
      79% { opacity:.42; }
    }

    @keyframes goldBlink {
      0%,100% { opacity:.18; }
      18% { opacity:.52; }
      27% { opacity:.28; }
      38% { opacity:.84; }
      47% { opacity:.34; }
      63% { opacity:.74; }
      71% { opacity:.26; }
    }

    @keyframes blueBlink {
      0%,100% { opacity:.16; }
      12% { opacity:.46; }
      24% { opacity:.22; }
      37% { opacity:.90; }
      45% { opacity:.31; }
      59% { opacity:.78; }
      67% { opacity:.24; }
      83% { opacity:.62; }
    }
  </style>

  <g id="background">
    <rect width="2048" height="1142" fill="#02060b"/>
    <ellipse cx="1024" cy="86" rx="760" ry="420" fill="url(#bgTop)" filter="url(#bgBlur)"/>
    <ellipse cx="1380" cy="852" rx="770" ry="260" fill="url(#bgBottomBlue)" filter="url(#bgBlur)"/>
    <ellipse cx="450" cy="858" rx="540" ry="220" fill="url(#bgBottomGold)" filter="url(#bgBlur)"/>
    <rect width="2048" height="1142" fill="url(#vignette)"/>
  </g>

  <g id="underlay-glows">
    <use href="#ug1" class="under gold" stroke-width="9.5"/>
    <use href="#ug2" class="under gold" stroke-width="8.5"/>
    <use href="#ug3" class="under gold" stroke-width="10.5"/>
    <use href="#ub1" class="under blue" stroke-width="10"/>
    <use href="#ub2" class="under blue" stroke-width="10.5"/>
    <use href="#ub3" class="under blue" stroke-width="9"/>
  </g>

  <g id="static-golden-lines">
    <use href="#g01" class="trace gold" stroke-width="1.55" stroke-opacity=".64"/>
    <use href="#g02" class="trace gold" stroke-width="1.25" stroke-opacity=".55"/>
    <use href="#g03" class="trace gold" stroke-width="1.6"  stroke-opacity=".68"/>
    <use href="#g04" class="trace gold" stroke-width="1.15" stroke-opacity=".50"/>
    <use href="#g05" class="trace gold" stroke-width="1.05" stroke-opacity=".46"/>
    <use href="#g06" class="trace gold" stroke-width="1.2"  stroke-opacity=".54"/>
    <use href="#g07" class="trace gold" stroke-width="1.1"  stroke-opacity=".48"/>
    <use href="#g08" class="trace gold" stroke-width="1.05" stroke-opacity=".48"/>

    <use href="#g11" class="trace gold" stroke-width="1.62" stroke-opacity=".70"/>
    <use href="#g12" class="trace gold" stroke-width="1.45" stroke-opacity=".64"/>
    <use href="#g13" class="trace gold" stroke-width="1.5"  stroke-opacity=".64"/>
    <use href="#g14" class="trace gold" stroke-width="1.38" stroke-opacity=".58"/>
    <use href="#g15" class="trace gold" stroke-width="1.38" stroke-opacity=".56"/>
    <use href="#g16" class="trace gold" stroke-width="1.6"  stroke-opacity=".66"/>
    <use href="#g17" class="trace gold" stroke-width="1.32" stroke-opacity=".58"/>
    <use href="#g18" class="trace gold" stroke-width="1.25" stroke-opacity=".52"/>
    <use href="#g19" class="trace gold" stroke-width="1.42" stroke-opacity=".62"/>
    <use href="#g20" class="trace gold" stroke-width="1.28" stroke-opacity=".58"/>
  </g>

  <g id="static-blue-lines">
    <use href="#b01" class="trace blue" stroke-width="1.05" stroke-opacity=".40"/>
    <use href="#b02" class="trace blue" stroke-width="1.55" stroke-opacity=".75"/>
    <use href="#b03" class="trace blue" stroke-width="1.45" stroke-opacity=".72"/>
    <use href="#b04" class="trace blue" stroke-width="1.28" stroke-opacity=".68"/>
    <use href="#b05" class="trace blue" stroke-width="1.18" stroke-opacity=".60"/>
    <use href="#b06" class="trace blue" stroke-width="1.12" stroke-opacity=".56"/>
    <use href="#b07" class="trace blue" stroke-width="1.05" stroke-opacity=".50"/>

    <use href="#b11" class="trace blue" stroke-width="1.52" stroke-opacity=".70"/>
    <use href="#b12" class="trace blue" stroke-width="1.42" stroke-opacity=".68"/>
    <use href="#b13" class="trace blue" stroke-width="1.34" stroke-opacity=".62"/>
    <use href="#b14" class="trace blue" stroke-width="1.25" stroke-opacity=".58"/>
    <use href="#b15" class="trace blue" stroke-width="1.25" stroke-opacity=".58"/>
    <use href="#b16" class="trace blue" stroke-width="1.42" stroke-opacity=".58"/>
    <use href="#b17" class="trace blue" stroke-width="1.38" stroke-opacity=".56"/>
    <use href="#b18" class="trace blue" stroke-width="1.46" stroke-opacity=".72"/>
    <use href="#b19" class="trace blue" stroke-width="1.36" stroke-opacity=".68"/>
    <use href="#b20" class="trace blue" stroke-width="1.62" stroke-opacity=".66"/>
  </g>

  <g id="golden-pulses">
    <use href="#g01" class="pulse gold glow" stroke-width="4.8" style="--dash:11 89; --dur:8.7s; --delay:-0.4s; --fdelay:-0.2s;"/>
    <use href="#g01" class="pulse gold core" stroke-width="1.3" style="--dash:11 89; --dur:8.7s; --delay:-0.4s; --fdelay:-0.2s;"/>

    <use href="#g03" class="pulse gold glow" stroke-width="5.1" style="--dash:12 88; --dur:8.2s; --delay:-1.1s; --fdelay:-0.8s;"/>
    <use href="#g03" class="pulse gold core" stroke-width="1.45" style="--dash:12 88; --dur:8.2s; --delay:-1.1s; --fdelay:-0.8s;"/>

    <use href="#g06" class="pulse gold glow" stroke-width="4.3" style="--dash:10 90; --dur:9.4s; --delay:-2.4s; --fdelay:-1.1s;"/>
    <use href="#g06" class="pulse gold core" stroke-width="1.1" style="--dash:10 90; --dur:9.4s; --delay:-2.4s; --fdelay:-1.1s;"/>

    <use href="#g07" class="pulse gold glow" stroke-width="4.1" style="--dash:9 91; --dur:9.9s; --delay:-3.2s; --fdelay:-1.4s;"/>
    <use href="#g07" class="pulse gold core" stroke-width="1.02" style="--dash:9 91; --dur:9.9s; --delay:-3.2s; --fdelay:-1.4s;"/>

    <use href="#g11" class="pulse gold glow" stroke-width="5.6" style="--dash:13 87; --dur:7.5s; --delay:-0.7s; --fdelay:-0.1s;"/>
    <use href="#g11" class="pulse gold core" stroke-width="1.55" style="--dash:13 87; --dur:7.5s; --delay:-0.7s; --fdelay:-0.1s;"/>

    <use href="#g12" class="pulse gold glow" stroke-width="5.2" style="--dash:12 88; --dur:8.1s; --delay:-1.9s; --fdelay:-0.7s;"/>
    <use href="#g12" class="pulse gold core" stroke-width="1.42" style="--dash:12 88; --dur:8.1s; --delay:-1.9s; --fdelay:-0.7s;"/>

    <use href="#g13" class="pulse gold glow" stroke-width="5.3" style="--dash:12 88; --dur:8.8s; --delay:-2.6s; --fdelay:-1.0s;"/>
    <use href="#g13" class="pulse gold core" stroke-width="1.46" style="--dash:12 88; --dur:8.8s; --delay:-2.6s; --fdelay:-1.0s;"/>

    <use href="#g14" class="pulse gold glow" stroke-width="4.9" style="--dash:11 89; --dur:9.2s; --delay:-4.1s; --fdelay:-1.3s;"/>
    <use href="#g14" class="pulse gold core" stroke-width="1.32" style="--dash:11 89; --dur:9.2s; --delay:-4.1s; --fdelay:-1.3s;"/>

    <use href="#g15" class="pulse gold glow" stroke-width="4.9" style="--dash:10 90; --dur:9.7s; --delay:-5.1s; --fdelay:-0.6s;"/>
    <use href="#g15" class="pulse gold core" stroke-width="1.28" style="--dash:10 90; --dur:9.7s; --delay:-5.1s; --fdelay:-0.6s;"/>

    <use href="#g16" class="pulse gold glow" stroke-width="5.4" style="--dash:13 87; --dur:8.0s; --delay:-3.0s; --fdelay:-1.5s;"/>
    <use href="#g16" class="pulse gold core" stroke-width="1.52" style="--dash:13 87; --dur:8.0s; --delay:-3.0s; --fdelay:-1.5s;"/>

    <use href="#g17" class="pulse gold glow" stroke-width="4.8" style="--dash:10 90; --dur:9.1s; --delay:-6.0s; --fdelay:-0.4s;"/>
    <use href="#g17" class="pulse gold core" stroke-width="1.24" style="--dash:10 90; --dur:9.1s; --delay:-6.0s; --fdelay:-0.4s;"/>

    <use href="#g19" class="pulse gold glow" stroke-width="4.8" style="--dash:11 89; --dur:7.7s; --delay:-2.2s; --fdelay:-1.2s;"/>
    <use href="#g19" class="pulse gold core" stroke-width="1.34" style="--dash:11 89; --dur:7.7s; --delay:-2.2s; --fdelay:-1.2s;"/>

    <use href="#g20" class="pulse gold glow" stroke-width="4.2" style="--dash:9 91; --dur:8.4s; --delay:-4.6s; --fdelay:-1.1s;"/>
    <use href="#g20" class="pulse gold core" stroke-width="1.18" style="--dash:9 91; --dur:8.4s; --delay:-4.6s; --fdelay:-1.1s;"/>
  </g>

  <g id="blue-pulses">
    <use href="#b02" class="pulse blue glow" stroke-width="5.9" style="--dash:14 86; --dur:7.8s; --delay:-0.3s; --fdelay:-0.8s;"/>
    <use href="#b02" class="pulse blue core" stroke-width="1.7" style="--dash:14 86; --dur:7.8s; --delay:-0.3s; --fdelay:-0.8s;"/>

    <use href="#b03" class="pulse blue glow" stroke-width="5.5" style="--dash:13 87; --dur:8.5s; --delay:-1.7s; --fdelay:-1.2s;"/>
    <use href="#b03" class="pulse blue core" stroke-width="1.55" style="--dash:13 87; --dur:8.5s; --delay:-1.7s; --fdelay:-1.2s;"/>

    <use href="#b04" class="pulse blue glow" stroke-width="5.0" style="--dash:12 88; --dur:8.9s; --delay:-2.5s; --fdelay:-0.6s;"/>
    <use href="#b04" class="pulse blue core" stroke-width="1.42" style="--dash:12 88; --dur:8.9s; --delay:-2.5s; --fdelay:-0.6s;"/>

    <use href="#b05" class="pulse blue glow" stroke-width="4.6" style="--dash:10 90; --dur:9.6s; --delay:-3.9s; --fdelay:-0.9s;"/>
    <use href="#b05" class="pulse blue core" stroke-width="1.28" style="--dash:10 90; --dur:9.6s; --delay:-3.9s; --fdelay:-0.9s;"/>

    <use href="#b06" class="pulse blue glow" stroke-width="4.2" style="--dash:9 91; --dur:10.2s; --delay:-4.5s; --fdelay:-1.3s;"/>
    <use href="#b06" class="pulse blue core" stroke-width="1.12" style="--dash:9 91; --dur:10.2s; --delay:-4.5s; --fdelay:-1.3s;"/>

    <use href="#b11" class="pulse blue glow" stroke-width="5.6" style="--dash:13 87; --dur:7.2s; --delay:-0.8s; --fdelay:-0.2s;"/>
    <use href="#b11" class="pulse blue core" stroke-width="1.55" style="--dash:13 87; --dur:7.2s; --delay:-0.8s; --fdelay:-0.2s;"/>

    <use href="#b12" class="pulse blue glow" stroke-width="5.4" style="--dash:12 88; --dur:7.9s; --delay:-1.6s; --fdelay:-1.0s;"/>
    <use href="#b12" class="pulse blue core" stroke-width="1.46" style="--dash:12 88; --dur:7.9s; --delay:-1.6s; --fdelay:-1.0s;"/>

    <use href="#b13" class="pulse blue glow" stroke-width="5.0" style="--dash:11 89; --dur:8.5s; --delay:-2.9s; --fdelay:-0.5s;"/>
    <use href="#b13" class="pulse blue core" stroke-width="1.34" style="--dash:11 89; --dur:8.5s; --delay:-2.9s; --fdelay:-0.5s;"/>

    <use href="#b14" class="pulse blue glow" stroke-width="4.8" style="--dash:10 90; --dur:9.4s; --delay:-3.8s; --fdelay:-1.4s;"/>
    <use href="#b14" class="pulse blue core" stroke-width="1.28" style="--dash:10 90; --dur:9.4s; --delay:-3.8s; --fdelay:-1.4s;"/>

    <use href="#b15" class="pulse blue glow" stroke-width="4.8" style="--dash:10 90; --dur:9.8s; --delay:-5.0s; --fdelay:-0.7s;"/>
    <use href="#b15" class="pulse blue core" stroke-width="1.26" style="--dash:10 90; --dur:9.8s; --delay:-5.0s; --fdelay:-0.7s;"/>

    <use href="#b16" class="pulse blue glow" stroke-width="5.0" style="--dash:11 89; --dur:8.9s; --delay:-4.3s; --fdelay:-1.2s;"/>
    <use href="#b16" class="pulse blue core" stroke-width="1.34" style="--dash:11 89; --dur:8.9s; --delay:-4.3s; --fdelay:-1.2s;"/>

    <use href="#b17" class="pulse blue glow" stroke-width="4.8" style="--dash:10 90; --dur:9.8s; --delay:-6.1s; --fdelay:-0.8s;"/>
    <use href="#b17" class="pulse blue core" stroke-width="1.24" style="--dash:10 90; --dur:9.8s; --delay:-6.1s; --fdelay:-0.8s;"/>

    <use href="#b18" class="pulse blue glow" stroke-width="5.2" style="--dash:12 88; --dur:7.4s; --delay:-1.3s; --fdelay:-0.4s;"/>
    <use href="#b18" class="pulse blue core" stroke-width="1.42" style="--dash:12 88; --dur:7.4s; --delay:-1.3s; --fdelay:-0.4s;"/>

    <use href="#b19" class="pulse blue glow" stroke-width="4.9" style="--dash:11 89; --dur:7.9s; --delay:-2.8s; --fdelay:-1.1s;"/>
    <use href="#b19" class="pulse blue core" stroke-width="1.34" style="--dash:11 89; --dur:7.9s; --delay:-2.8s; --fdelay:-1.1s;"/>

    <use href="#b20" class="pulse blue glow" stroke-width="5.4" style="--dash:13 87; --dur:8.1s; --delay:-3.5s; --fdelay:-0.9s;"/>
    <use href="#b20" class="pulse blue core" stroke-width="1.5" style="--dash:13 87; --dur:8.1s; --delay:-3.5s; --fdelay:-0.9s;"/>
  </g>

  <g id="blinking-dots">
    <!-- gold -->
    <circle class="goldDot" cx="18" cy="615" r="7.2" opacity=".56" style="--dur:2.5s; --delay:-0.2s;"/>
    <circle class="goldDot" cx="58" cy="634" r="3.2" opacity=".42" style="--dur:2.9s; --delay:-0.8s;"/>
    <circle class="goldDot" cx="108" cy="646" r="5.6" opacity=".48" style="--dur:3.2s; --delay:-1.1s;"/>
    <circle class="goldDot" cx="174" cy="658" r="2.5" opacity=".34" style="--dur:3.8s; --delay:-1.5s;"/>
    <circle class="goldDot" cx="225" cy="666" r="3.8" opacity=".36" style="--dur:2.8s; --delay:-2.0s;"/>

    <circle class="goldDot" cx="470" cy="703" r="7.8" opacity=".46" style="--dur:3.4s; --delay:-0.6s;"/>
    <circle class="goldDot" cx="514" cy="739" r="3.0" opacity=".34" style="--dur:2.6s; --delay:-1.0s;"/>
    <circle class="goldDot" cx="572" cy="753" r="3.8" opacity=".36" style="--dur:3.0s; --delay:-1.6s;"/>
    <circle class="goldDot" cx="650" cy="770" r="3.2" opacity=".35" style="--dur:3.4s; --delay:-2.1s;"/>
    <circle class="goldDot" cx="730" cy="780" r="3.4" opacity=".38" style="--dur:4.0s; --delay:-2.6s;"/>
    <circle class="goldDot" cx="780" cy="764" r="4.2" opacity=".42" style="--dur:2.7s; --delay:-0.7s;"/>
    <circle class="goldDot" cx="842" cy="736" r="3.9" opacity=".40" style="--dur:3.3s; --delay:-1.4s;"/>

    <circle class="goldDot" cx="375" cy="160" r="2.8" opacity=".34" style="--dur:2.4s; --delay:-0.4s;"/>
    <circle class="goldDot" cx="402" cy="151" r="2.4" opacity=".32" style="--dur:3.0s; --delay:-1.2s;"/>
    <circle class="goldDot" cx="430" cy="144" r="2.1" opacity=".30" style="--dur:3.8s; --delay:-2.1s;"/>
    <circle class="goldDot" cx="718" cy="61" r="3.0" opacity=".34" style="--dur:2.6s; --delay:-0.8s;"/>
    <circle class="goldDot" cx="773" cy="47" r="2.5" opacity=".30" style="--dur:3.4s; --delay:-1.5s;"/>
    <circle class="goldDot" cx="832" cy="65" r="2.2" opacity=".28" style="--dur:4.0s; --delay:-2.0s;"/>
    <circle class="goldDot" cx="1510" cy="74" r="5.2" opacity=".44" style="--dur:2.8s; --delay:-0.5s;"/>
    <circle class="goldDot" cx="1605" cy="58" r="3.0" opacity=".32" style="--dur:3.2s; --delay:-1.0s;"/>
    <circle class="goldDot" cx="1778" cy="52" r="4.6" opacity=".40" style="--dur:3.7s; --delay:-1.8s;"/>

    <circle class="goldDot" cx="144" cy="878" r="4.8" opacity=".34" style="--dur:2.7s; --delay:-0.3s;"/>
    <circle class="goldDot" cx="246" cy="918" r="3.2" opacity=".28" style="--dur:3.5s; --delay:-0.9s;"/>
    <circle class="goldDot" cx="386" cy="984" r="2.4" opacity=".22" style="--dur:4.2s; --delay:-1.6s;"/>
    <circle class="goldDot" cx="522" cy="1048" r="3.0" opacity=".22" style="--dur:3.1s; --delay:-2.0s;"/>
    <circle class="goldDot" cx="708" cy="1092" r="4.0" opacity=".30" style="--dur:2.8s; --delay:-1.0s;"/>
    <circle class="goldDot" cx="862" cy="1110" r="5.0" opacity=".34" style="--dur:3.4s; --delay:-1.7s;"/>
    <circle class="goldDot" cx="1002" cy="1074" r="4.4" opacity=".32" style="--dur:3.9s; --delay:-2.3s;"/>
    <circle class="goldDot" cx="1100" cy="996" r="4.2" opacity=".32" style="--dur:2.9s; --delay:-0.8s;"/>

    <circle class="goldDot" cx="1582" cy="957" r="2.8" opacity=".24" style="--dur:3.6s; --delay:-1.3s;"/>
    <circle class="goldDot" cx="1692" cy="932" r="2.6" opacity=".22" style="--dur:4.1s; --delay:-2.1s;"/>
    <circle class="goldDot" cx="1812" cy="888" r="3.0" opacity=".24" style="--dur:3.2s; --delay:-1.0s;"/>
    <circle class="goldDot" cx="1946" cy="1002" r="3.8" opacity=".28" style="--dur:2.8s; --delay:-1.4s;"/>
    <circle class="goldDot" cx="2016" cy="1080" r="4.0" opacity=".28" style="--dur:3.8s; --delay:-2.2s;"/>

    <!-- blue -->
    <circle class="blueDot" cx="1336" cy="30" r="4.8" opacity=".42" style="--dur:2.6s; --delay:-0.4s;"/>
    <circle class="blueDot" cx="1395" cy="38" r="5.6" opacity=".46" style="--dur:3.3s; --delay:-1.0s;"/>
    <circle class="blueDot" cx="1458" cy="46" r="7.0" opacity=".54" style="--dur:3.8s; --delay:-1.7s;"/>
    <circle class="blueDot" cx="1548" cy="60" r="3.4" opacity=".34" style="--dur:2.9s; --delay:-2.1s;"/>
    <circle class="blueDot" cx="1656" cy="78" r="3.8" opacity=".34" style="--dur:3.6s; --delay:-0.9s;"/>
    <circle class="blueDot" cx="1778" cy="54" r="4.8" opacity=".38" style="--dur:4.0s; --delay:-1.5s;"/>
    <circle class="blueDot" cx="1884" cy="40" r="7.4" opacity=".50" style="--dur:2.7s; --delay:-0.5s;"/>
    <circle class="blueDot" cx="1974" cy="84" r="4.0" opacity=".34" style="--dur:3.1s; --delay:-1.2s;"/>

    <circle class="blueDot" cx="1300" cy="150" r="3.2" opacity=".28" style="--dur:3.0s; --delay:-0.7s;"/>
    <circle class="blueDot" cx="1340" cy="118" r="3.8" opacity=".30" style="--dur:3.5s; --delay:-1.5s;"/>
    <circle class="blueDot" cx="1388" cy="158" r="2.4" opacity=".24" style="--dur:4.1s; --delay:-2.0s;"/>
    <circle class="blueDot" cx="1420" cy="202" r="2.6" opacity=".24" style="--dur:2.8s; --delay:-0.9s;"/>
    <circle class="blueDot" cx="1336" cy="240" r="2.4" opacity=".22" style="--dur:3.7s; --delay:-1.6s;"/>
    <circle class="blueDot" cx="1426" cy="248" r="2.0" opacity=".22" style="--dur:3.3s; --delay:-2.2s;"/>

    <circle class="blueDot" cx="1448" cy="600" r="4.8" opacity=".34" style="--dur:2.8s; --delay:-0.5s;"/>
    <circle class="blueDot" cx="1518" cy="590" r="3.8" opacity=".30" style="--dur:3.5s; --delay:-1.4s;"/>
    <circle class="blueDot" cx="1590" cy="618" r="5.2" opacity=".40" style="--dur:3.0s; --delay:-1.9s;"/>
    <circle class="blueDot" cx="1666" cy="610" r="4.4" opacity=".34" style="--dur:3.9s; --delay:-0.8s;"/>
    <circle class="blueDot" cx="1748" cy="642" r="3.6" opacity=".28" style="--dur:2.5s; --delay:-1.1s;"/>
    <circle class="blueDot" cx="1844" cy="644" r="4.0" opacity=".30" style="--dur:3.3s; --delay:-1.7s;"/>
    <circle class="blueDot" cx="1930" cy="640" r="3.8" opacity=".28" style="--dur:3.8s; --delay:-2.4s;"/>
    <circle class="blueDot" cx="2002" cy="670" r="4.2" opacity=".32" style="--dur:2.9s; --delay:-1.0s;"/>

    <circle class="blueDot" cx="1316" cy="744" r="6.2" opacity=".34" style="--dur:3.4s; --delay:-0.6s;"/>
    <circle class="blueDot" cx="1396" cy="704" r="7.0" opacity=".36" style="--dur:2.8s; --delay:-1.3s;"/>
    <circle class="blueDot" cx="1484" cy="612" r="6.0" opacity=".34" style="--dur:3.2s; --delay:-2.0s;"/>
    <circle class="blueDot" cx="1564" cy="654" r="4.8" opacity=".28" style="--dur:4.0s; --delay:-0.9s;"/>
    <circle class="blueDot" cx="1652" cy="686" r="4.6" opacity=".28" style="--dur:3.6s; --delay:-1.8s;"/>
    <circle class="blueDot" cx="1754" cy="726" r="5.0" opacity=".30" style="--dur:3.0s; --delay:-2.4s;"/>
    <circle class="blueDot" cx="1866" cy="792" r="3.8" opacity=".26" style="--dur:2.7s; --delay:-1.1s;"/>
    <circle class="blueDot" cx="1962" cy="830" r="3.2" opacity=".24" style="--dur:3.8s; --delay:-1.7s;"/>

    <circle class="blueDot" cx="1412" cy="964" r="11.2" opacity=".40" style="--dur:4.2s; --delay:-0.8s;"/>
    <circle class="blueDot" cx="1526" cy="1012" r="6.8" opacity=".32" style="--dur:3.5s; --delay:-1.5s;"/>
    <circle class="blueDot" cx="1608" cy="1096" r="8.0" opacity=".34" style="--dur:3.0s; --delay:-2.2s;"/>
    <circle class="blueDot" cx="1712" cy="992" r="5.2" opacity=".30" style="--dur:2.8s; --delay:-1.0s;"/>
    <circle class="blueDot" cx="1806" cy="932" r="4.4" opacity=".26" style="--dur:3.6s; --delay:-1.9s;"/>
    <circle class="blueDot" cx="1928" cy="1056" r="4.0" opacity=".24" style="--dur:3.1s; --delay:-2.6s;"/>
    <circle class="blueDot" cx="2006" cy="1088" r="4.4" opacity=".24" style="--dur:3.9s; --delay:-1.4s;"/>

    <circle class="blueDot" cx="1752" cy="334" r="3.4" opacity=".18" style="--dur:3.2s; --delay:-0.6s;"/>
    <circle class="blueDot" cx="1816" cy="284" r="2.8" opacity=".16" style="--dur:3.8s; --delay:-1.2s;"/>
    <circle class="blueDot" cx="1910" cy="206" r="5.2" opacity=".20" style="--dur:4.1s; --delay:-2.0s;"/>
  </g>
</svg>