<svg version="1.1" xmlns="http://www.w3.org/2000/svg" viewBox="0 0 528 560" role="img" aria-label="Saryas Jaf">
<title>Saryas Jaf</title>
<g opacity="1">
<path fill="#1a1410" d="M179.981171,81.537445 C177.199844,82.285248 175.719894,84.158295 174.082001,85.796921 C154.055679,105.832069 134.079681,125.917786 113.977821,145.876770 C111.402321,148.433960 110.305252,151.080246 110.319496,154.686691 C110.421494,180.516495 110.412766,206.347122 110.307716,232.176941 C110.293839,235.586823 111.261925,238.113037 113.703056,240.570084 C140.947952,267.992645 168.096466,295.511017 195.245682,323.028503 C196.575180,324.376068 197.882538,325.592804 199.896164,325.586273 C212.059082,325.546844 224.222046,325.511505 236.384583,325.419403 C237.129166,325.413788 237.870148,324.933929 238.657684,324.659058 C238.144150,322.440491 236.441986,321.488190 235.197067,320.237091 C206.517700,291.414581 177.829239,262.601044 149.059601,233.868759 C146.625595,231.437912 145.576843,228.915894 145.596130,225.490326 C145.705978,205.993332 145.678879,186.495224 145.602768,166.997864 C145.591034,163.993088 146.319855,161.596390 148.523804,159.398987 C162.092636,145.870529 175.593491,132.273178 189.028061,118.611328 C191.528534,116.068535 194.442596,115.746422 197.700775,115.751030 C224.197525,115.788475 250.694778,115.691353 277.190765,115.836151 C281.199249,115.858055 283.874481,114.870522 286.417694,111.495941 C293.175568,102.528847 305.934967,101.394951 314.395691,108.529877 C322.483521,115.350334 323.265778,127.929268 316.091339,135.796295 C308.426483,144.201096 295.223480,144.852310 287.771057,136.036758 C283.486603,130.968643 279.073700,130.012512 273.127655,130.064713 C249.799149,130.269547 226.467178,130.166718 203.137299,130.033691 C199.390320,130.012329 196.551651,130.999649 193.861877,133.764191 C183.752655,144.154373 173.454391,154.362473 163.123047,164.533264 C160.921265,166.700821 160.068588,169.042709 160.085739,172.080765 C160.174164,187.744751 160.233566,203.410873 160.044769,219.073135 C159.996414,223.086090 161.346375,225.908005 164.149368,228.697876 C191.905548,256.323975 219.571960,284.040436 247.179520,311.815125 C249.558868,314.208862 251.754028,314.922180 255.136276,314.219940 C264.324280,312.312439 273.426331,317.782684 276.551819,326.612823 C279.765411,335.691925 276.215271,345.093811 267.813141,349.755615 C259.385254,354.431671 249.212769,352.892365 243.706985,344.973694 C240.453918,340.294983 236.891220,339.180939 231.684799,339.312073 C220.027191,339.605652 208.355927,339.310974 196.691864,339.424286 C193.480530,339.455475 190.973602,338.606598 188.672897,336.280273 C158.911011,306.186829 129.099213,276.142700 99.255280,246.130600 C97.336800,244.201309 96.616249,242.102005 96.618950,239.437729 C96.650032,208.774826 96.641098,178.111801 96.551231,147.449051 C96.542191,144.364868 97.590965,142.009781 99.722565,139.910187 C123.346237,116.641342 146.966003,93.368446 170.531708,70.040970 C172.801682,67.793930 175.415375,67.579193 178.321457,67.580719 C235.481201,67.610809 292.641113,67.542755 349.800446,67.697823 C355.144775,67.712311 358.968109,66.815414 362.439941,62.086933 C367.606049,55.050968 377.725006,53.508801 385.565247,57.351933 C393.369843,61.177582 397.613983,69.717316 395.896118,78.138947 C394.072052,87.081215 386.694031,93.818581 377.745789,93.983429 C370.681427,94.113579 364.713745,91.236450 360.781921,85.149872 C359.063019,82.488968 357.090637,81.337173 353.859192,81.342842 C296.034149,81.444206 238.208984,81.445656 179.981171,81.537445 z"/>
</g>
<g opacity="1">
<path fill="#1a1410" d="M278.067200,300.929779 C251.621658,273.851654 225.458206,246.992081 199.169403,220.255722 C196.037201,217.070190 194.391983,213.834732 194.580383,209.256195 C194.902161,201.436172 194.724884,193.593002 194.647232,185.760651 C194.621185,183.133255 195.147842,180.774323 196.982269,178.864273 C201.252121,174.418396 205.580505,170.028793 209.870041,165.601730 C212.121368,163.278183 215.014862,163.600464 217.837296,163.600800 C262.169495,163.606033 306.501892,163.556808 350.833618,163.698700 C355.487732,163.713593 358.716492,162.664276 361.845459,158.794266 C368.857239,150.121765 381.137329,149.341339 389.573608,156.301926 C397.206757,162.599869 398.518311,174.296387 392.508392,182.474823 C386.421173,190.758453 375.007263,192.709595 366.187775,186.983566 C364.346924,185.788391 362.457733,184.455063 361.580902,182.494431 C359.423889,177.671051 355.609467,177.215103 350.945221,177.229065 C308.279907,177.356827 265.614075,177.302048 222.948380,177.309265 C215.282852,177.310562 209.027206,184.117157 208.212494,191.708267 C206.903793,203.902161 210.726379,212.908798 219.961761,221.488220 C237.155823,237.461029 253.049911,254.839035 269.353546,271.758911 C272.114288,274.623962 274.969299,275.894348 278.981110,275.847565 C295.811920,275.651245 312.647003,275.832642 329.478333,275.661835 C333.421295,275.621826 336.460175,276.650269 339.259216,279.508362 C357.215485,297.843201 375.254395,316.097656 393.354340,334.290741 C396.126678,337.077332 397.390900,340.040009 397.357178,344.031647 C397.200928,362.529816 397.235992,381.030487 397.348328,399.529358 C397.370026,403.100281 396.411316,405.917450 393.832886,408.453247 C381.003906,421.070404 368.132294,433.650513 355.592468,446.551605 C351.635773,450.622345 347.443817,452.158325 341.890564,452.087006 C313.232391,451.718933 284.570862,451.607513 255.910339,451.429810 C248.920273,451.386475 241.924957,451.583557 234.941315,451.368958 C231.541763,451.264496 229.535355,452.404297 227.702454,455.352631 C223.039841,462.852631 215.617966,464.333313 207.552841,463.117615 C199.946976,461.971161 195.629974,456.894836 193.587692,449.785858 C191.342209,441.969574 193.413452,435.210663 199.439789,429.880157 C207.467773,422.779083 221.064346,424.727112 227.703018,433.997986 C229.573593,436.610229 231.509995,437.681061 234.681931,437.667419 C270.507141,437.513092 306.332825,437.458405 342.158417,437.434906 C344.401184,437.433441 345.934509,436.400879 347.380951,434.955170 C358.224823,424.116943 369.040070,413.249756 379.939514,402.467743 C381.997620,400.431885 382.771606,398.195831 382.760529,395.337616 C382.699371,379.505035 382.714935,363.671448 382.844299,347.839386 C382.869385,344.767334 381.895844,342.465820 379.740417,340.314819 C363.933075,324.540039 348.199890,308.690918 332.439087,292.869446 C331.260590,291.686401 330.083282,290.386993 328.257355,290.383057 C315.323303,290.355133 302.389160,290.368195 288.133209,290.368195 C293.137817,295.666595 297.251038,300.121124 301.471680,304.471436 C315.860504,319.302246 330.244202,334.138672 344.740112,348.864380 C347.264343,351.428619 348.466675,354.112335 348.357208,357.724152 C348.160309,364.217896 347.854401,370.762268 348.429779,377.210938 C349.054779,384.215271 346.480377,389.463043 341.598022,394.015381 C339.770325,395.719513 337.983459,397.472717 336.257324,399.279358 C332.737823,402.962982 328.691528,404.462494 323.391052,404.436768 C279.059753,404.221466 234.726913,404.338074 190.394852,404.231567 C186.606857,404.222473 183.972580,405.058655 181.566223,408.341003 C176.344528,415.463531 167.481979,417.720734 159.205261,414.740997 C151.519791,411.974091 146.424789,404.333374 146.759720,396.077026 C147.093887,387.838959 152.624741,380.887085 160.726471,378.521820 C168.904388,376.134308 177.065002,379.032867 182.033356,386.510010 C183.741684,389.080963 185.690842,389.950439 188.621323,389.944824 C233.120102,389.859711 277.619049,389.857300 322.117889,389.791351 C327.472260,389.783417 334.146820,383.265350 334.469971,377.518372 C334.759552,372.368896 334.540039,367.190918 334.548767,362.025513 C334.554962,358.331970 332.247772,355.950653 329.872101,353.542816 C312.668762,336.106598 295.494781,318.641449 278.067200,300.929779 z"/>
</g>
<g opacity="1">
<path fill="#1a1410" d="M373.289703,476.293060 C391.671295,458.124664 409.768494,440.169678 427.972870,422.324036 C430.641724,419.707825 431.946320,417.044159 431.921265,413.166565 C431.753265,387.171387 431.798431,361.174530 431.877258,335.178497 C431.886932,331.985077 431.088928,329.508911 428.764893,327.167114 C401.650970,299.845703 374.617523,272.444427 347.591217,245.036209 C345.857513,243.277985 344.005432,242.286118 341.450317,242.298996 C329.619141,242.358566 317.785339,242.410889 305.957031,242.205475 C302.667572,242.148361 301.345215,244.115234 299.685547,246.256332 C294.418488,253.051254 285.237274,255.544006 277.181671,252.530914 C269.317047,249.589264 264.244537,241.768677 264.746674,233.359192 C265.201813,225.735992 270.614899,218.504349 278.187683,216.390686 C286.185303,214.158432 293.804169,215.556183 298.871887,222.467712 C302.211060,227.021790 305.940216,228.103180 311.126404,227.969513 C322.450714,227.677612 333.788300,227.944931 345.118713,227.821075 C348.887848,227.779877 351.819763,229.036896 354.454712,231.700607 C383.867126,261.433960 413.311920,291.135376 442.809753,320.783936 C445.224030,323.210541 446.244751,325.815125 446.236786,329.222321 C446.167175,359.051147 446.172821,388.880371 446.275604,418.709106 C446.287445,422.137756 445.240967,424.699860 442.812653,427.109314 C419.391174,450.348724 396.020020,473.639130 372.721802,497.001984 C370.261047,499.469574 367.622101,500.278320 364.249023,500.272949 C306.424133,500.180817 248.599060,500.190674 190.774170,500.097992 C187.087524,500.092072 184.346466,500.564667 181.935257,504.075073 C175.482483,513.469299 161.728394,514.822998 153.276917,507.375946 C144.773712,499.883301 144.439438,486.669220 152.557755,478.947571 C160.721252,471.182953 174.772644,471.769318 181.338058,480.916687 C184.360657,485.128021 187.548584,485.916809 192.143463,485.905792 C244.968918,485.779022 297.796326,485.586731 350.618988,485.979614 C359.977203,486.049225 367.592163,484.536255 373.289703,476.293060 z"/>
</g>
<g opacity="1">
<path fill="#1a1410" d="M477.960785,170.960999 C463.458649,185.459503 449.224213,199.725830 434.936218,213.938293 C433.371674,215.494568 431.859253,218.263626 429.209106,216.824020 C426.018829,215.090988 423.145813,212.583694 421.583984,209.187561 C420.769806,207.417191 422.635895,206.195099 423.780396,205.048874 C438.252655,190.554733 452.743286,176.078888 467.240234,161.609436 C474.158600,154.704163 481.100311,147.822296 487.793091,141.166901 C486.931458,138.387009 485.192749,137.244400 483.809906,135.854324 C464.076172,116.017128 444.370483,96.151283 424.502106,76.449600 C421.445343,73.418442 420.876648,71.195854 424.470428,68.445885 C425.646393,67.546013 426.624695,66.358574 427.584686,65.211662 C429.678619,62.709999 431.511383,62.923191 433.771210,65.204185 C452.760071,84.370430 471.824463,103.461784 490.861786,122.580002 C495.091614,126.827789 499.328735,131.068771 503.518463,135.355927 C508.401520,140.352600 508.387177,140.434235 503.609436,145.232697 C495.148285,153.730515 486.678802,162.220062 477.960785,170.960999 z"/>
</g>
<g opacity="1">
<path fill="#1a1410" d="M86.658951,374.658813 C94.460243,366.878967 102.077667,359.413513 109.520264,351.777649 C111.940994,349.294067 113.554260,349.243134 115.988327,351.875275 C122.476517,358.891449 122.589432,358.784668 115.855194,365.553192 C96.700119,384.805725 77.603073,404.116699 58.330906,423.251312 C55.410580,426.150818 55.269024,428.049042 58.182667,430.952362 C78.011955,450.711304 97.745728,470.566376 117.436241,490.463745 C119.057854,492.102417 122.451378,493.580566 120.930771,496.351929 C119.127647,499.638184 116.225891,502.522125 112.774933,504.184845 C110.662971,505.202393 109.305870,502.675415 107.957794,501.333740 C91.895233,485.347443 75.862305,469.331177 59.864231,453.280304 C52.571762,445.963806 45.546516,438.371063 38.055950,431.266388 C34.579224,427.968781 35.074154,425.954651 38.220173,422.863708 C54.384800,406.982269 70.363495,390.911560 86.658951,374.658813 z"/>
</g>
<circle cx="301" cy="123" r="16" fill="#d4a574" opacity="1">
</circle>
<circle cx="211" cy="444" r="16" fill="#d4a574" opacity="1">
</circle>
</svg>
